<svg xmlns="http://www.w3.org/2000/svg" viewBox="0 0 145.18 167.17"><g id="Capa_2" data-name="Capa 2"><g id="Capa_1-2" data-name="Capa 1"><path d="M72.86,0,0,41.91v83.51l72.59,41.75,72.59-41.75V41.91Zm0,14.14,52.86,32.34-23.6,13.31L72.86,42.55,43.52,59.84,19.73,46.48ZM51.72,64.7,72.93,52.52,94,64.65,72.86,76.3ZM67.61,86.19v26.05L47.3,100.85l0-26.1Zm10.5,26.05v-26L98.19,74.62v26.23ZM13.88,56,37.22,69.1v31.83L13.88,112.24Zm4.92,64.69,22.3-12.82,26.53,15.64-.11,25.31ZM78.11,148.8l.07-25.37L104.31,108l22.52,12.63Zm52.79-36.56-22.4-11V68.8L130.9,56Z" fill="#fff"/></g></g></svg>